<svg width="300px" height="300px" viewBox="0 0 300 300" version="1.1" xmlns="http://www.w3.org/2000/svg" xmlns:xlink="http://www.w3.org/1999/xlink">
                    <defs>
                        <linearGradient x1="50%" y1="100%" x2="50%" y2="2.44593024e-14%" id="linearGradient-1">
                            <stop stop-color="#00aff0" offset="0%"/>
                            <stop stop-color="green" offset="100%"/>
                        </linearGradient>
                        <linearGradient x1="49.9854234%" y1="100%" x2="49.9854234%" y2="-2.69655687e-14%" id="linearGradient-2">
                            <stop stop-color="#326ce5" offset="0%"/>
                            <stop stop-color="green" offset="100%"/>
                        </linearGradient>
                        <linearGradient x1="28965%" y1="10090%" x2="28965%" y2="25980%" id="linearGradient-3">
                            <stop stop-color="#326ce5" offset="0%"/>
                            <stop stop-color="green" offset="100%"/>
                        </linearGradient>
                        <linearGradient x1="17935%" y1="10020%" x2="17935%" y2="25920%" id="linearGradient-4">
                            <stop stop-color="#326ce5" offset="0%"/>
                            <stop stop-color="green" offset="100%"/>
                        </linearGradient>
                        <linearGradient x1="50%" y1="100.15411%" x2="50%" y2="0.256849315%" id="linearGradient-5">
                            <stop stop-color="#326ce5" offset="0%"/>
                            <stop stop-color="#00aff0" offset="100%"/>
                        </linearGradient>
                    </defs>
                    <g id="Welcome" stroke="none" stroke-width="1" fill="none" fill-rule="evenodd">
                        <g id="about" transform="translate(-922.000000, -458.000000)" fill-rule="nonzero">
                            <g id="edge" transform="translate(0.000000, 440.000000)">
                                <g id="CICD_Infinity_Symbol" transform="translate(922.000000, 88.000000)">
                                    <path d="M55.6,79.7 C55.544274,75.3517287 57.2608475,71.1680852 60.3545986,68.1120628 C63.4483497,65.0560404 67.6527397,63.3909272 72,63.5 C77.2166469,63.2923867 82.1840696,65.738466 85.2,70 L78.7,75 C76.9,72.8 74.9,71.4 71.9,71.4 C67.6,71.4 64.5,75.1 64.5,79.6 L64.5,79.7 C64.5,84.4 67.6,88 71.9,88 C75.1,88 77,86.5 78.9,84.2 L85.4,88.8 C81.339064,94.6293524 73.9816925,97.1739428 67.1870311,95.099063 C60.3923697,93.0241832 55.711634,86.8035265 55.6,79.7 Z" id="Shape" fill="#f04100"/>
                                    <polygon id="Shape" fill="#f04100" points="90.1 64.1 98.7 64.1 98.7 95.2 90.1 95.2"/>
                                    <path d="M187.3,79.7 C187.244274,75.3517287 188.960848,71.1680852 192.054599,68.1120628 C195.14835,65.0560404 199.35274,63.3909272 203.7,63.5 C208.916647,63.2923867 213.88407,65.738466 216.9,70 L210.4,75 C208.6,72.8 206.6,71.4 203.6,71.4 C199.3,71.4 196.2,75.1 196.2,79.6 L196.2,79.7 C196.2,84.4 199.3,88 203.6,88 C206.8,88 208.7,86.5 210.6,84.2 L217.1,88.8 C213.039064,94.6293524 205.681693,97.1739428 198.887031,95.099063 C192.09237,93.0241832 187.411634,86.8035265 187.3,79.7 Z" id="Shape" fill="#00aff0"/>
                                    <path d="M221.6,64.1 L233.6,64.1 C244.7,64.1 251.1,70.5 251.1,79.4 L251.1,79.5 C251.1,88.5 244.6,95.1 233.4,95.1 L221.6,95.1 L221.6,64.1 Z M233.7,87.5 C238.8,87.5 242.3,84.7 242.3,79.6 L242.3,79.5 C242.3,74.5 238.9,71.6 233.7,71.6 L230.2,71.6 L230.2,87.4 L233.7,87.4 L233.7,87.5 Z" id="Shape" fill="#00aff0"/>
                                    <path d="M75.6,11.1 L84.6,20.1 C107.576968,21.9890453 127.439482,36.8762135 135.7,58.4 C137.867363,50.088699 141.236203,42.1382356 145.7,34.8 C132.157259,14.9843492 110.416674,2.31458307 86.5,0.3 L75.6,11.1 Z" id="Shape" fill="url(#linearGradient-1)"/>
                                    <path d="M75.6,148.6 L64.7,137.7 C37.112279,130.585093 18.3598523,105.014827 19.8649204,76.5641852 C21.3699885,48.1135432 42.7155865,24.6645044 70.9,20.5 L61.5,11.1 L68.6,4 L72.4,0.2 C32.6241451,3.93433498 1.73142745,36.4936871 0.0903091477,76.4107338 C-1.55080915,116.32778 26.5649272,151.31316 65.9,158.3 L75.6,148.6 Z" id="Shape" fill="url(#linearGradient-2)"/>
                                    <path d="M222.2,6.31088724e-30 L233.3,11.1 L226.2,18.2 L224.3,20.1 C254.48112,22.5796891 278.060237,47.201925 279.231926,77.4620635 C280.403615,107.722202 258.799013,134.093976 228.9,138.9 L219.2,148.6 L229.5,158.9 C270.759258,153.670844 301.082316,117.626936 299.173681,76.0814483 C297.265046,34.5359608 263.764916,1.42414378 222.2,-2.84217094e-14 Z" id="Shape" fill="url(#linearGradient-3)"/>
                                    <path d="M209.6,20.7 L219.2,11.1 L208.7,0.6 C169.109104,5.94367308 139.576549,39.7501146 139.6,79.7 C139.551035,112.373308 113.367854,139.001025 80.7,139.6 L89.7,148.6 L82.6,155.7 L78.7,159.60001 L79.7,159.6 C100.867529,159.610618 121.171142,151.206552 136.138847,136.238847 C151.106552,121.271142 159.510618,100.967529 159.5,79.8 C159.607686,50.538527 180.751002,25.5970102 209.6,20.7 Z" id="Shape" fill="url(#linearGradient-4)"/>
                                    <path d="M205.1,148.6 L212.2,141.5 L214.4,139.3 C191.549132,137.263672 171.845542,122.408406 163.6,101 C161.414469,109.336641 158.046992,117.317562 153.6,124.7 C167.773626,145.449294 190.895605,158.30719 216,159.4 L205.1,148.6 Z" id="Shape" fill="url(#linearGradient-5)"/>
                                </g>
                            </g>
                        </g>
                    </g>
                </svg>