<svg width="195" height="191" viewBox="0 0 195 191" xmlns="http://www.w3.org/2000/svg" xmlns:xlink="http://www.w3.org/1999/xlink"><title>expertise-symbol-tdd</title><defs><path d="M79.265 158.416c43.777 0 79.265-35.462 79.265-79.208C158.53 35.463 123.042 0 79.265 0S0 35.463 0 79.208c0 43.746 35.488 79.208 79.265 79.208z" id="a"/><mask id="g" x="-1" y="-1" width="160.53" height="160.416"><path fill="#fff" d="M-1-1h160.53v160.416H-1z"/><use xlink:href="#a"/></mask><path d="M16.603 30.695C6.196 44.098 0 60.93 0 79.208c0 43.746 35.488 79.208 79.265 79.208V80.162L16.603 30.695z" id="b"/><mask id="h" x="-1" y="-1" width="81.265" height="129.722"><path fill="#fff" d="M-1 29.695h81.265v129.722H-1z"/><use xlink:href="#b"/></mask><path d="M80.22 158.41c43.337-.51 78.31-35.775 78.31-79.202 0-18.065-6.052-34.718-16.24-48.045l-62.07 49v78.248z" id="c"/><mask id="i" x="-1" y="-1" width="80.31" height="129.247"><path fill="#fff" d="M79.22 30.163h80.31V159.41H79.22z"/><use xlink:href="#c"/></mask><ellipse id="d" cx="38.2" cy="144.102" rx="38.2" ry="38.173"/><mask id="j" x="-1.2" y="-1.2" width="78.8" height="78.745"><path fill="#fff" d="M-1.2 104.73h78.8v78.744H-1.2z"/><use xlink:href="#d"/></mask><ellipse id="e" cx="95.5" cy="38.173" rx="38.2" ry="38.173"/><mask id="k" x="-1.2" y="-1.2" width="78.8" height="78.745"><path fill="#fff" d="M56.1-1.2h78.8v78.745H56.1z"/><use xlink:href="#e"/></mask><ellipse id="f" cx="152.8" cy="144.102" rx="38.2" ry="38.173"/><mask id="l" x="-1.2" y="-1.2" width="78.8" height="78.745"><path fill="#fff" d="M113.4 104.73h78.8v78.744h-78.8z"/><use xlink:href="#f"/></mask></defs><g fill="none" fill-rule="evenodd"><g transform="translate(2 2)"><g transform="translate(17.19 29.584)"><use fill="#00B6F2" xlink:href="#a"/><use stroke="#FFF" mask="url(#g)" stroke-width="2" xlink:href="#a"/></g><g transform="rotate(-180 87.86 94)"><use fill="#9C52C7" xlink:href="#b"/><use stroke="#FFF" mask="url(#h)" stroke-width="2" xlink:href="#b"/></g><g transform="rotate(-180 87.86 94)"><use fill="#3081F2" xlink:href="#c"/><use stroke="#FFF" mask="url(#i)" stroke-width="2" xlink:href="#c"/></g><ellipse fill="#FFF" transform="rotate(-180 96.455 108.792)" cx="96.455" cy="108.792" rx="60.165" ry="60.122"/><g transform="rotate(-180 38.2 144.102)"><use fill="#3081F2" xlink:href="#d"/><use stroke="#FFF" mask="url(#j)" stroke-width="2.4" xlink:href="#d"/></g><g transform="rotate(-180 95.5 38.173)"><use fill="#9C52C7" xlink:href="#e"/><use stroke="#FFF" mask="url(#k)" stroke-width="2.4" xlink:href="#e"/></g><g transform="rotate(-180 152.8 144.102)"><use fill="#00B6F2" xlink:href="#f"/><use stroke="#FFF" mask="url(#l)" stroke-width="2.4" xlink:href="#f"/></g><path d="M82.47 43.212v-4.33h4.25v-.87h-4.25v-3.03h5.238v-.87h-6.2v9.1h.96zm7.7 0l1.105-2.51h4.77l1.132 2.51h1.014l-4.066-9.152h-.897l-4.056 9.152h1zm3.497-7.943l2.067 4.586H91.6l2.067-4.59zm8.715 7.94v-9.1h-.962v9.1h.962zm10.17 0v-.87h-5.082v-8.23h-.962v9.1h6.045z" fill="#FFF"/><path d="M80.61 103.317h2.873v7.423h1.872v-7.423h2.886v-1.677h-7.63v1.677zm13.928 7.423c1.47 0 2.678-.416 3.6-1.26.924-.846 1.392-1.95 1.392-3.29s-.468-2.43-1.39-3.276c-.924-.845-2.133-1.274-3.602-1.274h-3.406v9.1h3.406zm-1.534-7.423h1.378c2.028 0 3.224 1.066 3.224 2.873 0 1.807-1.196 2.873-3.224 2.873h-1.378v-5.746zm13.122 7.423c1.47 0 2.678-.416 3.6-1.26.924-.846 1.392-1.95 1.392-3.29s-.468-2.43-1.39-3.276c-.924-.845-2.133-1.274-3.602-1.274h-3.406v9.1h3.406zm-1.534-7.423h1.378c2.028 0 3.224 1.066 3.224 2.873 0 1.807-1.196 2.873-3.224 2.873h-1.378v-5.746z" fill="#000"/><path d="M137.86 149.14v-4.016h2.86c1.82 0 2.91-1.014 2.91-2.56 0-1.51-1.09-2.523-2.91-2.523h-3.823v9.1h.962zm0-8.228h2.794c1.287 0 2.028.598 2.028 1.677 0 1.05-.74 1.66-2.028 1.66h-2.795v-3.34zm8.376 8.23l1.105-2.51h4.774l1.13 2.51h1.015l-4.07-9.153h-.897l-4.055 9.15h1zm3.497-7.944l2.067 4.59h-4.134l2.067-4.59zm10.392 8.1c.95 0 1.742-.235 2.392-.703.663-.468.988-1.105.988-1.924 0-.66-.286-1.232-.637-1.56a2.87 2.87 0 0 0-.702-.49 6.263 6.263 0 0 0-.793-.35c-.22-.08-.52-.17-.897-.288l-.546-.155-.56-.156-.44-.17c-.21-.077-.352-.142-.43-.207-.286-.22-.65-.57-.585-1.026 0-.832.74-1.482 2.197-1.482.975 0 1.91.286 2.808.845v-.99c-.806-.507-1.755-.754-2.834-.754-.988 0-1.755.22-2.314.663-.56.44-.832 1-.832 1.69 0 .635.26 1.155.572 1.48.156.156.377.312.676.455.3.143.572.247.806.325.234.08.56.17.962.287.325.09.56.17.69.208l.57.195c.26.09.443.18.547.26.39.233.82.662.754 1.234 0 1.053-1.04 1.716-2.457 1.716a5.49 5.49 0 0 1-1.885-.338c-.598-.234-1.066-.507-1.417-.806v1.08c.74.558 2.015.96 3.367.96zm9.664 0c.946 0 1.74-.235 2.39-.703.662-.468.99-1.105.99-1.924 0-.66-.29-1.232-.64-1.56a2.87 2.87 0 0 0-.7-.49 6.263 6.263 0 0 0-.795-.35c-.22-.08-.52-.17-.897-.288l-.547-.155-.56-.156-.44-.17c-.21-.077-.35-.142-.43-.207-.285-.22-.65-.57-.584-1.026 0-.832.74-1.482 2.196-1.482.975 0 1.91.286 2.808.845v-.99c-.806-.507-1.755-.754-2.834-.754-.988 0-1.755.22-2.314.663-.56.44-.832 1-.832 1.69 0 .635.26 1.155.572 1.48.156.156.377.312.676.455.3.143.572.247.806.325.234.08.56.17.962.287.325.09.56.17.69.208l.57.195c.26.09.443.18.547.26.39.233.82.662.754 1.234 0 1.053-1.04 1.716-2.457 1.716a5.49 5.49 0 0 1-1.885-.338c-.6-.234-1.067-.507-1.418-.806v1.08c.74.558 2.015.96 3.367.96zm-162.9-.158v-4.094h2.78l2.86 4.095h1.13l-2.937-4.183c1.352-.22 2.145-1.157 2.145-2.444 0-1.494-1.094-2.47-2.875-2.47h-4.07v9.1h.963zm0-8.228h3.053c1.235 0 1.963.598 1.963 1.638s-.715 1.625-1.963 1.625H6.89v-3.263zm14.74 8.23v-.872h-5.474v-3.575h4.33v-.87h-4.33v-2.913h5.278v-.87h-6.24v9.1h6.435zm2.546 0v-4.33h4.25v-.87h-4.25v-3.03h5.24v-.87h-6.202v9.1h.962zm5.9 0l1.106-2.51h4.77l1.132 2.51H38.1l-4.07-9.153h-.897l-4.056 9.15h1zm3.498-7.944l2.067 4.59h-4.133l2.067-4.59zm9.528 8.1c1.092 0 2.002-.274 2.743-.807v-1c-.754.61-1.65.91-2.704.91-1.052 0-1.95-.362-2.664-1.08-.715-.712-1.066-1.622-1.066-2.73 0-1.09.353-2 1.068-2.714.715-.728 1.586-1.092 2.64-1.092.896 0 1.74.26 2.534.767v-.99c-.714-.453-1.56-.674-2.547-.674-1.34 0-2.444.442-3.34 1.34-.885.883-1.327 2-1.327 3.366s.442 2.498 1.326 3.38c.897.886 2.002 1.328 3.34 1.328zm7.656-.157v-8.226h3.17v-.87H46.66v.87h3.134v8.23h.962zm4.885-7.9c-.87.896-1.3 2.014-1.3 3.353 0 1.34.43 2.47 1.3 3.368.87.898 1.963 1.34 3.276 1.34 1.313 0 2.392-.442 3.263-1.34.87-.896 1.313-2.027 1.313-3.366 0-1.338-.442-2.456-1.313-3.353-.87-.896-1.95-1.35-3.263-1.35s-2.404.454-3.275 1.35zm.715 6.07c-.688-.728-1.04-1.638-1.04-2.717 0-1.078.352-1.988 1.04-2.716.69-.728 1.548-1.092 2.562-1.092 1.014 0 1.872.364 2.56 1.092.69.728 1.04 1.638 1.04 2.717 0 1.08-.35 1.99-1.04 2.718-.688.73-1.546 1.093-2.56 1.093s-1.872-.364-2.56-1.092zm10.01 1.833v-4.094h2.782l2.86 4.094h1.13l-2.937-4.185c1.352-.22 2.145-1.158 2.145-2.445 0-1.494-1.092-2.47-2.873-2.47h-4.07v9.1h.963zm0-8.228h3.055c1.235 0 1.963.598 1.963 1.638s-.715 1.625-1.963 1.625H66.37v-3.263z" fill="#FFF"/></g><path stroke="#FFF" d="M165.777 66.6l-5.024 13.3-14.028-2.3m-120-3.2l14.028-2.3 5.024 13.3M101.004 191L92 180l9.004-11"/></g></svg>